# xmcd
#
# Track frame offsets:
#	182
#	15907
#	35097
#	52415
#	66472
#	86525
#	103117
#	122342
#	138930
#	157815
#
# Disc length: 2325
#
# Revision: 2
# Processed by: cddbd v1.5.1PL0 Copyright (c) Steve Scherf et al.
# Submitted via: dBpowerAMP V4.0
# Normalized: r0:TDELIM( - );r1:TSWAP
#
DISCID=8009130a
DTITLE=Various Artist - Country Music Classics, Vol VII, 1985-1990
DYEAR=1900
DGENRE=Country
TTITLE0=Highway 101 - The Bed You Made For Me
TTITLE1=Restless Heart - I'll Still Be Loving You
TTITLE2=Steve Wariner - The Weekend
TTITLE3=Ricky Van Shelton - I'll Leave This World Loving You
TTITLE4=Rodney Crowell - After All This Time
TTITLE5=Dan Seals - Bop
TTITLE6=Ronnie Milsap - Lost In The Fifties Tonight
TTITLE7=Kathy Mattea - Love At The Five and Dime
TTITLE8=Exile - I Can't Get Close Enough
TTITLE9=Gary Morris - 100 Percent Chance of Rain
EXTD=Country Music Classics, Volume VII, 1985-1990\nRic Serrambana
EXTT0=
EXTT1=
EXTT2=
EXTT3=
EXTT4=
EXTT5=
EXTT6=
EXTT7=
EXTT8=
EXTT9=
PLAYORDER=
